<svg version="1.1" viewBox="0.0 0.0 960.0 960.0" fill="none" stroke="none" stroke-linecap="square" stroke-miterlimit="10" xmlns:xlink="http://www.w3.org/1999/xlink" xmlns="http://www.w3.org/2000/svg"><clipPath id="p.0"><path d="m0 0l960.0 0l0 960.0l-960.0 0l0 -960.0z" clip-rule="nonzero"/></clipPath><g clip-path="url(#p.0)"><path fill="#000000" fill-opacity="0.0" d="m0 0l960.0 0l0 960.0l-960.0 0z" fill-rule="evenodd"/><defs><linearGradient id="p.1" gradientUnits="userSpaceOnUse" gradientTransform="matrix(16.02752640590474 0.0 0.0 16.02752640590474 0.0 0.0)" spreadMethod="pad" x1="1.9772405981783208" y1="40.96429422651362" x2="1.9771825464449833" y2="56.99182063231323"><stop offset="0.0" stop-color="#f2f2f2"/><stop offset="1.0" stop-color="#a6a6a6"/></linearGradient></defs><path fill="url(#p.1)" d="m76.35503 685.64264l-44.66475 176.30829l40.23597 0l22.89775 -102.97406l-18.468971 -73.33423zm4.523018 -8.349243l33.451447 127.88269l-22.615059 0l-8.669113 36.597534l40.895576 0l5.276848 20.177307l42.12056 0l-49.847374 -184.65753z" fill-rule="evenodd"/><defs><linearGradient id="p.2" gradientUnits="userSpaceOnUse" gradientTransform="matrix(16.02752640590474 0.0 0.0 16.02752640590474 0.0 0.0)" spreadMethod="pad" x1="1.9772405981783208" y1="40.96429422651362" x2="1.9771825464449833" y2="56.99182063231323"><stop offset="0.0" stop-color="#f2f2f2"/><stop offset="1.0" stop-color="#a6a6a6"/></linearGradient></defs><path fill="url(#p.2)" d="m181.70355 714.16925l0 147.78168l42.02632 0l0 -147.78168zm62.756805 0l-13.945969 20.733948l0 16.141907l17.903595 0l0 110.90582l41.743637 0l0 -114.523865l-22.520813 -33.257812z" fill-rule="evenodd"/><defs><linearGradient id="p.3" gradientUnits="userSpaceOnUse" gradientTransform="matrix(16.02752640590474 0.0 0.0 16.02752640590474 0.0 0.0)" spreadMethod="pad" x1="1.9772405981783208" y1="40.96429422651362" x2="1.9771825464449833" y2="56.99182063231323"><stop offset="0.0" stop-color="#f2f2f2"/><stop offset="1.0" stop-color="#a6a6a6"/></linearGradient></defs><path fill="url(#p.3)" d="m322.765 775.9537l-16.772827 24.63031l0 37.015015l16.772827 24.351929l31.849548 0l12.438293 -18.229187l0 -16.281006l-21.484314 0l0 -25.88269l21.484314 0l0 -25.60437zm4.1460876 -61.784424l-12.532501 18.507507l0 18.368347l59.270325 0l0 110.90582l40.707123 0l0 -110.90582l-24.970825 -36.875854z" fill-rule="evenodd"/><defs><linearGradient id="p.4" gradientUnits="userSpaceOnUse" gradientTransform="matrix(16.02752640590474 0.0 0.0 16.02752640590474 0.0 0.0)" spreadMethod="pad" x1="1.9772405981783208" y1="40.96429422651362" x2="1.9771825464449833" y2="56.99182063231323"><stop offset="0.0" stop-color="#f2f2f2"/><stop offset="1.0" stop-color="#a6a6a6"/></linearGradient></defs><path fill="url(#p.4)" d="m486.81848 714.16925l36.937927 135.39697l18.65741 -75.28241l-14.040161 -60.114563zm-53.99347 -56.35742l0 169.6289l23.368896 34.510193l36.937927 0l0 -36.875854l-18.65741 0l0 -167.26324zm131.63855 56.35742l-50.695496 199.26874l39.95331 0l50.789673 -199.26874z" fill-rule="evenodd"/><defs><linearGradient id="p.5" gradientUnits="userSpaceOnUse" gradientTransform="matrix(16.02752640590474 0.0 0.0 16.02752640590474 0.0 0.0)" spreadMethod="pad" x1="1.9772405981783208" y1="40.96429422651362" x2="1.9771825464449833" y2="56.99182063231323"><stop offset="0.0" stop-color="#f2f2f2"/><stop offset="1.0" stop-color="#a6a6a6"/></linearGradient></defs><path fill="url(#p.5)" d="m654.8296 714.16925l0 27.13507l20.918945 0l0 11.549805l38.25714 0l0 -16.698547l-14.888245 -21.986328zm-45.88977 105.47882l0 11.828125l17.338257 30.474731l42.87439 0l0 -27.13501l-18.468994 0l0 -15.167847zm22.615051 -105.47882l-22.520813 33.118713l0 28.10913l21.67279 30.753052l45.041687 0l0 55.80078l18.374695 0l23.274658 -34.510193l0 -28.804932l-21.67273 -32.283752l-47.49164 0l0 -52.1828z" fill-rule="evenodd"/><defs><linearGradient id="p.6" gradientUnits="userSpaceOnUse" gradientTransform="matrix(16.02752640590474 0.0 0.0 16.02752640590474 0.0 0.0)" spreadMethod="pad" x1="1.9772405981783208" y1="40.96429422651362" x2="1.9771825464449833" y2="56.99182063231323"><stop offset="0.0" stop-color="#f2f2f2"/><stop offset="1.0" stop-color="#a6a6a6"/></linearGradient></defs><path fill="url(#p.6)" d="m733.7938 656.55945l0 39.241455l41.743652 0l0 -39.241455zm0 57.609802l0 147.78168l41.743652 0l0 -147.78168z" fill-rule="evenodd"/><defs><linearGradient id="p.7" gradientUnits="userSpaceOnUse" gradientTransform="matrix(16.02752640590474 0.0 0.0 16.02752640590474 0.0 0.0)" spreadMethod="pad" x1="1.9772405981783208" y1="40.96429422651362" x2="1.9771825464449833" y2="56.99182063231323"><stop offset="0.0" stop-color="#f2f2f2"/><stop offset="1.0" stop-color="#a6a6a6"/></linearGradient></defs><path fill="url(#p.7)" d="m838.57697 714.16925l0 27.13507l20.918945 0l0 11.549805l38.25714 0l0 -16.698547l-14.888245 -21.986328zm-45.88971 105.47882l0 11.828125l17.338196 30.474731l42.87439 0l0 -27.13501l-18.468933 0l0 -15.167847zm22.615051 -105.47882l-22.520813 33.118713l0 28.10913l21.67273 30.753052l45.041687 0l0 55.80078l18.374756 0l23.274658 -34.510193l0 -28.804932l-21.67279 -32.283752l-47.49164 0l0 -52.1828z" fill-rule="evenodd"/><path stroke="#3a3335" stroke-width="4.0" stroke-linejoin="round" stroke-linecap="butt" d="m76.35503 685.64264l-44.66475 176.30829l40.23597 0l22.89775 -102.97406l-18.468971 -73.33423zm4.523018 -8.349243l33.451447 127.88269l-22.615059 0l-8.669113 36.597534l40.895576 0l5.276848 20.177307l42.12056 0l-49.847374 -184.65753z" fill-rule="evenodd"/><path stroke="#3a3335" stroke-width="4.0" stroke-linejoin="round" stroke-linecap="butt" d="m181.70355 714.16925l0 147.78168l42.02632 0l0 -147.78168zm62.756805 0l-13.945969 20.733948l0 16.141907l17.903595 0l0 110.90582l41.743637 0l0 -114.523865l-22.520813 -33.257812z" fill-rule="evenodd"/><path stroke="#3a3335" stroke-width="4.0" stroke-linejoin="round" stroke-linecap="butt" d="m322.765 775.9537l-16.772827 24.63031l0 37.015015l16.772827 24.351929l31.849548 0l12.438293 -18.229187l0 -16.281006l-21.484314 0l0 -25.88269l21.484314 0l0 -25.60437zm4.1460876 -61.784424l-12.532501 18.507507l0 18.368347l59.270325 0l0 110.90582l40.707123 0l0 -110.90582l-24.970825 -36.875854z" fill-rule="evenodd"/><path stroke="#3a3335" stroke-width="4.0" stroke-linejoin="round" stroke-linecap="butt" d="m486.81848 714.16925l36.937927 135.39697l18.65741 -75.28241l-14.040161 -60.114563zm-53.99347 -56.35742l0 169.6289l23.368896 34.510193l36.937927 0l0 -36.875854l-18.65741 0l0 -167.26324zm131.63855 56.35742l-50.695496 199.26874l39.95331 0l50.789673 -199.26874z" fill-rule="evenodd"/><path stroke="#3a3335" stroke-width="4.0" stroke-linejoin="round" stroke-linecap="butt" d="m654.8296 714.16925l0 27.13507l20.918945 0l0 11.549805l38.25714 0l0 -16.698547l-14.888245 -21.986328zm-45.88977 105.47882l0 11.828125l17.338257 30.474731l42.87439 0l0 -27.13501l-18.468994 0l0 -15.167847zm22.615051 -105.47882l-22.520813 33.118713l0 28.10913l21.67279 30.753052l45.041687 0l0 55.80078l18.374695 0l23.274658 -34.510193l0 -28.804932l-21.67273 -32.283752l-47.49164 0l0 -52.1828z" fill-rule="evenodd"/><path stroke="#3a3335" stroke-width="4.0" stroke-linejoin="round" stroke-linecap="butt" d="m733.7938 656.55945l0 39.241455l41.743652 0l0 -39.241455zm0 57.609802l0 147.78168l41.743652 0l0 -147.78168z" fill-rule="evenodd"/><path stroke="#3a3335" stroke-width="4.0" stroke-linejoin="round" stroke-linecap="butt" d="m838.57697 714.16925l0 27.13507l20.918945 0l0 11.549805l38.25714 0l0 -16.698547l-14.888245 -21.986328zm-45.88971 105.47882l0 11.828125l17.338196 30.474731l42.87439 0l0 -27.13501l-18.468933 0l0 -15.167847zm22.615051 -105.47882l-22.520813 33.118713l0 28.10913l21.67273 30.753052l45.041687 0l0 55.80078l18.374756 0l23.274658 -34.510193l0 -28.804932l-21.67279 -32.283752l-47.49164 0l0 -52.1828z" fill-rule="evenodd"/><defs><linearGradient id="p.8" gradientUnits="userSpaceOnUse" gradientTransform="matrix(15.044993999572698 0.0 0.0 15.044993999572698 0.0 0.0)" spreadMethod="pad" x1="3.4704480521051444" y1="29.691411178433164" x2="18.51544205167784" y2="29.691411178433164"><stop offset="0.0" stop-color="#ff0000"/><stop offset="0.45" stop-color="#ffffff"/><stop offset="0.55" stop-color="#ffffff"/><stop offset="1.0" stop-color="#0000ff"/></linearGradient></defs><path fill="url(#p.8)" d="m52.212868 105.17848l0 341.52863l69.29849 0l0 -124.43045l138.66663 0l0 -63.366608l-138.66663 0l0 -90.28552l157.05338 0l0 -63.44603z" fill-rule="evenodd"/><path stroke="#3a3335" stroke-width="4.0" stroke-linejoin="round" stroke-linecap="butt" d="m52.212868 105.17848l0 341.52863l69.29849 0l0 -124.43045l138.66663 0l0 -63.366608l-138.66663 0l0 -90.28552l157.05338 0l0 -63.44603z" fill-rule="evenodd"/><defs><linearGradient id="p.9" gradientUnits="userSpaceOnUse" gradientTransform="matrix(16.115602360312057 0.0 0.0 16.115602360312057 0.0 0.0)" spreadMethod="pad" x1="21.43427564172481" y1="28.115553563215105" x2="37.54987800203686" y2="28.115553563215105"><stop offset="0.0" stop-color="#ff0000"/><stop offset="0.45" stop-color="#ffffff"/><stop offset="0.55" stop-color="#ffffff"/><stop offset="1.0" stop-color="#0000ff"/></linearGradient></defs><path fill="url(#p.9)" d="m471.20825 175.96935c21.404785 0 37.377075 5.214386 47.91693 15.643143c10.586304 10.375824 15.879456 25.013138 15.879456 43.911957c0 18.528244 -5.293152 33.006744 -15.879456 43.435516c-10.539856 10.375824 -26.512146 15.563721 -47.91693 15.563721l-56.48349 0l0 -118.55434zm-125.78198 -64.3989l0 341.52863l69.29849 0l0 -94.17645l60.383728 0c26.790771 0 49.89023 -4.949707 69.29849 -14.84906c19.408203 -9.952332 34.382263 -24.192657 44.92212 -42.720856c10.539856 -18.52826 15.809814 -40.47101 15.809814 -65.82825c0 -25.727798 -5.2699585 -47.855835 -15.809814 -66.38408c-10.539856 -18.528244 -25.513916 -32.742065 -44.92212 -42.64145c-19.408203 -9.952324 -42.50772 -14.928474 -69.29849 -14.928474z" fill-rule="evenodd"/><path stroke="#3a3335" stroke-width="4.0" stroke-linejoin="round" stroke-linecap="butt" d="m471.20825 175.96935c21.404785 0 37.377075 5.214386 47.91693 15.643143c10.586304 10.375824 15.879456 25.013138 15.879456 43.911957c0 18.528244 -5.293152 33.006744 -15.879456 43.435516c-10.539856 10.375824 -26.512146 15.563721 -47.91693 15.563721l-56.48349 0l0 -118.55434zm-125.78198 -64.3989l0 341.52863l69.29849 0l0 -94.17645l60.383728 0c26.790771 0 49.89023 -4.949707 69.29849 -14.84906c19.408203 -9.952332 34.382263 -24.192657 44.92212 -42.720856c10.539856 -18.52826 15.809814 -40.47101 15.809814 -65.82825c0 -25.727798 -5.2699585 -47.855835 -15.809814 -66.38408c-10.539856 -18.528244 -25.513916 -32.742065 -44.92212 -42.64145c-19.408203 -9.952324 -42.50772 -14.928474 -69.29849 -14.928474z" fill-rule="evenodd"/><defs><linearGradient id="p.10" gradientUnits="userSpaceOnUse" gradientTransform="matrix(16.906511600990775 0.0 0.0 16.906511600990775 0.0 0.0)" spreadMethod="pad" x1="37.2290705951354" y1="27.14900427370025" x2="54.13558219612617" y2="27.14900427370025"><stop offset="0.0" stop-color="#ff0000"/><stop offset="0.45" stop-color="#ffffff"/><stop offset="0.55" stop-color="#ffffff"/><stop offset="1.0" stop-color="#0000ff"/></linearGradient></defs><path fill="url(#p.10)" d="m791.9692 105.71413c-23.354858 0 -44.875732 4.3144455 -64.5625 12.943314c-19.686829 8.628868 -36.889587 20.910446 -51.608215 36.84474c-14.672241 15.934311 -26.071106 34.647858 -34.196594 56.14061c-8.125427 21.439835 -12.188171 45.02365 -12.188171 70.751465c0 25.674835 4.062744 49.258698 12.188171 70.751434c8.125488 21.43985 19.45465 40.126923 33.98761 56.06122c14.579407 15.934265 31.782166 28.21585 51.608215 36.844727c19.82611 8.628876 41.277344 12.943329 64.35358 12.943329c26.233643 0 49.843872 -5.1879272 70.83075 -15.563751c20.986877 -10.428772 38.607483 -25.56897 52.861877 -45.420685l-44.504272 -46.850006c-10.2612915 13.6579895 -21.68335 23.822052 -34.266174 30.492218c-12.536438 6.670166 -26.233643 10.005249 -41.091614 10.005249c-13.975769 0 -26.813965 -2.593933 -38.514587 -7.7818604c-11.654236 -5.2408447 -21.776245 -12.731567 -30.365967 -22.472137c-8.543335 -9.74054 -15.183044 -21.281006 -19.919006 -34.621338c-4.689514 -13.340363 -7.0343018 -28.136475 -7.0343018 -44.388397c0 -16.30487 2.3447876 -31.100998 7.0343018 -44.388412c4.735962 -13.340332 11.375671 -24.880783 19.919006 -34.621353c8.589722 -9.793503 18.711731 -17.28421 30.365967 -22.472122c11.700623 -5.24086 24.538818 -7.8612823 38.514587 -7.8612823c14.857971 0 28.555176 3.335083 41.091614 10.005264c12.582825 6.670166 24.004883 16.67543 34.266174 30.015762l44.504272 -46.850006c-14.254395 -19.798767 -31.875 -34.833115 -52.861877 -45.103058c-20.986877 -10.269951 -44.457825 -15.4049225 -70.41284 -15.4049225z" fill-rule="evenodd"/><path stroke="#3a3335" stroke-width="4.0" stroke-linejoin="round" stroke-linecap="butt" d="m791.9692 105.71413c-23.354858 0 -44.875732 4.3144455 -64.5625 12.943314c-19.686829 8.628868 -36.889587 20.910446 -51.608215 36.84474c-14.672241 15.934311 -26.071106 34.647858 -34.196594 56.14061c-8.125427 21.439835 -12.188171 45.02365 -12.188171 70.751465c0 25.674835 4.062744 49.258698 12.188171 70.751434c8.125488 21.43985 19.45465 40.126923 33.98761 56.06122c14.579407 15.934265 31.782166 28.21585 51.608215 36.844727c19.82611 8.628876 41.277344 12.943329 64.35358 12.943329c26.233643 0 49.843872 -5.1879272 70.83075 -15.563751c20.986877 -10.428772 38.607483 -25.56897 52.861877 -45.420685l-44.504272 -46.850006c-10.2612915 13.6579895 -21.68335 23.822052 -34.266174 30.492218c-12.536438 6.670166 -26.233643 10.005249 -41.091614 10.005249c-13.975769 0 -26.813965 -2.593933 -38.514587 -7.7818604c-11.654236 -5.2408447 -21.776245 -12.731567 -30.365967 -22.472137c-8.543335 -9.74054 -15.183044 -21.281006 -19.919006 -34.621338c-4.689514 -13.340363 -7.0343018 -28.136475 -7.0343018 -44.388397c0 -16.30487 2.3447876 -31.100998 7.0343018 -44.388412c4.735962 -13.340332 11.375671 -24.880783 19.919006 -34.621353c8.589722 -9.793503 18.711731 -17.28421 30.365967 -22.472122c11.700623 -5.24086 24.538818 -7.8612823 38.514587 -7.8612823c14.857971 0 28.555176 3.335083 41.091614 10.005264c12.582825 6.670166 24.004883 16.67543 34.266174 30.015762l44.504272 -46.850006c-14.254395 -19.798767 -31.875 -34.833115 -52.861877 -45.103058c-20.986877 -10.269951 -44.457825 -15.4049225 -70.41284 -15.4049225z" fill-rule="evenodd"/><path fill="#000000" d="m33.14876 501.76675l342.83463 0l0 28.503937l-342.83463 0z" fill-rule="evenodd"/><path stroke="#000000" stroke-width="1.0" stroke-linejoin="round" stroke-linecap="butt" d="m33.14876 501.76675l342.83463 0l0 28.503937l-342.83463 0z" fill-rule="evenodd"/><path fill="#000000" d="m387.45404 501.95642l0 93.102356l-25.385834 0l0 -93.102356z" fill-rule="evenodd"/><path stroke="#000000" stroke-width="1.0" stroke-linejoin="round" stroke-linecap="butt" d="m387.45404 501.95642l0 93.102356l-25.385834 0l0 -93.102356z" fill-rule="evenodd"/><path fill="#000000" d="m362.29303 569.80286l525.7008 0l0 28.503906l-525.7008 0z" fill-rule="evenodd"/><path stroke="#000000" stroke-width="1.0" stroke-linejoin="round" stroke-linecap="butt" d="m362.29303 569.80286l525.7008 0l0 28.503906l-525.7008 0z" fill-rule="evenodd"/></g></svg>